<svg xmlns="http://www.w3.org/2000/svg" width="220" height="40" viewBox="0 0 220 40" role="img" aria-label="NEXON">
  <rect width="220" height="40" rx="8" fill="#ffffff"/>
  <g fill="#00122f">
    <path d="M22 28V12h4l10 10.7V12h4v16h-3.9L26 17.5V28z"/>
    <path d="M49 28V12h15v3.5H53v3h10v3.4H53v2.6h11V28z"/>
    <path d="M73 28l6.1-8.1L73.2 12h4.9l3.6 4.9 3.6-4.9h4.8l-5.9 7.8 6.1 8.2h-5l-3.9-5.2-3.9 5.2z"/>
    <path d="M100 20c0-5 4.2-8.4 9.4-8.4s9.4 3.4 9.4 8.4-4.2 8.4-9.4 8.4S100 25 100 20zm4.3 0c0 2.9 2.2 4.8 5.1 4.8s5.1-1.9 5.1-4.8-2.2-4.8-5.1-4.8-5.1 1.9-5.1 4.8z"/>
    <path d="M127 28V12h4l10 10.7V12h4v16h-3.9l-10.1-10.5V28z"/>
    <path d="M157 28V12h4l10 10.7V12h4v16h-3.9L161.9 17.5V28z"/>
  </g>
</svg>
